<svg width="24" height="24" viewBox="0 0 24 24" fill="none" xmlns="http://www.w3.org/2000/svg">
<path d="M5.4 6.33301H8.6C8.6 6.33301 9 6.33301 9 6.71396V16.6186C9 16.6186 9 16.9995 8.6 16.9995H5.4C5.4 16.9995 5 16.9995 5 16.6186V6.71396C5 6.71396 5 6.33301 5.4 6.33301Z" fill="white"/>
<path d="M6.98402 4.80943C8.52359 4.82113 9.49916 3.24129 8.74001 1.96559C7.98087 0.689965 6.05644 0.675271 5.27602 1.9392C5.0953 2.23185 5.00002 2.56518 5.00002 2.9047C4.99559 3.95244 5.88387 4.80521 6.98402 4.80943Z" fill="white"/>
<path d="M18.2001 17.0007H20.6001C20.821 17.0007 21.0001 16.8301 21.0001 16.6197V10.2198C21.0001 7.34748 19.2961 5.95321 16.9121 5.95321C15.9574 5.92083 15.033 6.27518 14.3681 6.92844C14.2764 7.0232 14.131 7.05095 14.0081 6.99701C13.8843 6.95293 13.8017 6.84095 13.8001 6.71511C13.8001 6.5047 13.621 6.33416 13.4001 6.33416H11.0001C10.7792 6.33416 10.6001 6.5047 10.6001 6.71511V16.6197C10.6001 16.8301 10.7792 17.0007 11.0001 17.0007H13.4001C13.621 17.0007 13.8001 16.8301 13.8001 16.6197V10.9055C13.8001 9.43929 15.4667 8.52284 16.8001 9.25596C17.4189 9.59622 17.8001 10.2251 17.8001 10.9055V16.6197C17.8001 16.8301 17.9792 17.0007 18.2001 17.0007Z" fill="white"/>
</svg>
