<svg width="24" height="24" viewBox="0 0 24 24" fill="none" xmlns="http://www.w3.org/2000/svg">
<path d="M11.0418 10.2668C10.9585 10.2668 10.7668 10.2251 10.7668 10.4084V13.7418C10.7685 13.7736 10.7777 13.8046 10.7938 13.8322C10.8099 13.8598 10.8323 13.8831 10.8592 13.9002C10.8861 13.9173 10.9167 13.9278 10.9485 13.9306C10.9803 13.9335 11.0123 13.9288 11.0418 13.9168C11.3996 13.7634 11.7038 13.5073 11.916 13.181C12.1281 12.8546 12.2386 12.4726 12.2335 12.0834C12.2321 11.6978 12.1187 11.3208 11.9072 10.9983C11.6957 10.6758 11.395 10.4217 11.0418 10.2668Z" fill="white"/>
<path d="M7.33343 10.0999H6.81676C6.7593 10.0999 6.70419 10.1227 6.66356 10.1633C6.62293 10.204 6.6001 10.2591 6.6001 10.3165V11.3499C6.60225 11.4059 6.62603 11.4589 6.66643 11.4977C6.70683 11.5366 6.76072 11.5582 6.81676 11.5582H7.33343C7.43573 11.5692 7.5392 11.5585 7.6371 11.5268C7.73499 11.4952 7.82514 11.4433 7.90166 11.3745C7.97819 11.3057 8.03939 11.2216 8.08128 11.1276C8.12318 11.0337 8.14483 10.9319 8.14483 10.829C8.14483 10.7261 8.12318 10.6244 8.08128 10.5304C8.03939 10.4365 7.97819 10.3524 7.90166 10.2836C7.82514 10.2148 7.73499 10.1629 7.6371 10.1313C7.5392 10.0996 7.43573 10.0889 7.33343 10.0999Z" fill="white"/>
<path d="M19 15.8333V8.33333C19 8.11232 18.9122 7.90036 18.7559 7.74408C18.5996 7.5878 18.3877 7.5 18.1667 7.5H4.83333C4.61232 7.5 4.40036 7.5878 4.24408 7.74408C4.0878 7.90036 4 8.11232 4 8.33333V15.8333C4 16.0543 4.0878 16.2663 4.24408 16.4226C4.40036 16.5789 4.61232 16.6667 4.83333 16.6667H18.1667C18.3877 16.6667 18.5996 16.5789 18.7559 16.4226C18.9122 16.2663 19 16.0543 19 15.8333ZM7.33333 12.6H6.81667C6.7592 12.6 6.70409 12.6228 6.66346 12.6635C6.62283 12.7041 6.6 12.7592 6.6 12.8167V14.5833C6.6 14.7204 6.54557 14.8518 6.44867 14.9487C6.35178 15.0456 6.22036 15.1 6.08333 15.1C5.9463 15.1 5.81489 15.0456 5.71799 14.9487C5.6211 14.8518 5.56667 14.7204 5.56667 14.5833V9.58333C5.56665 9.44553 5.62082 9.31324 5.71748 9.21502C5.81414 9.1168 5.94554 9.06052 6.08333 9.05833H7.33333C7.782 9.08913 8.20224 9.28908 8.50916 9.61779C8.81608 9.9465 8.98678 10.3794 8.98678 10.8292C8.98678 11.2789 8.81608 11.7118 8.50916 12.0405C8.20224 12.3693 7.782 12.5692 7.33333 12.6ZM10.25 15.1C10.113 15.1 9.98156 15.0456 9.88466 14.9487C9.78777 14.8518 9.73333 14.7204 9.73333 14.5833V9.58333C9.73332 9.44553 9.78748 9.31324 9.88414 9.21502C9.98081 9.1168 10.1122 9.06052 10.25 9.05833C11.0237 9.09899 11.7524 9.43498 12.2857 9.99704C12.819 10.5591 13.1163 11.3044 13.1163 12.0792C13.1163 12.854 12.819 13.5992 12.2857 14.1613C11.7524 14.7234 11.0237 15.0593 10.25 15.1ZM16.9167 10.1H15.25C15.166 10.1 15.0855 10.1334 15.0261 10.1927C14.9667 10.2521 14.9333 10.3327 14.9333 10.4167V11.35C14.9355 11.406 14.9593 11.459 14.9997 11.4978C15.0401 11.5367 15.094 11.5584 15.15 11.5583H16.0833C16.2101 11.5744 16.3267 11.6362 16.4112 11.7321C16.4957 11.8279 16.5423 11.9514 16.5423 12.0792C16.5423 12.207 16.4957 12.3304 16.4112 12.4263C16.3267 12.5222 16.2101 12.5839 16.0833 12.6H15.15C15.0925 12.6 15.0374 12.6228 14.9968 12.6635C14.9562 12.7041 14.9333 12.7592 14.9333 12.8167V14.5833C14.9333 14.7204 14.8789 14.8518 14.782 14.9487C14.6851 15.0456 14.5537 15.1 14.4167 15.1C14.2796 15.1 14.1482 15.0456 14.0513 14.9487C13.9544 14.8518 13.9 14.7204 13.9 14.5833V10.4167C13.8989 10.2387 13.933 10.0622 14.0004 9.89748C14.0677 9.73273 14.167 9.58292 14.2924 9.45668C14.4179 9.33044 14.5671 9.23025 14.7314 9.16189C14.8958 9.09352 15.072 9.05833 15.25 9.05833H16.9167C17.0435 9.0744 17.16 9.13617 17.2445 9.23206C17.329 9.32794 17.3757 9.45136 17.3757 9.57917C17.3757 9.70697 17.329 9.83039 17.2445 9.92628C17.16 10.0222 17.0435 10.0839 16.9167 10.1Z" fill="white"/>
<path d="M23.7583 4.75833L19.2416 0.241667C19.0864 0.0877132 18.8769 0.000920518 18.6583 0L8.99992 0C8.55789 0 8.13397 0.175595 7.82141 0.488155C7.50885 0.800716 7.33325 1.22464 7.33325 1.66667V6.45833C7.33325 6.51359 7.3552 6.56658 7.39427 6.60565C7.43334 6.64472 7.48633 6.66667 7.54159 6.66667H8.79159C8.84684 6.66667 8.89983 6.64472 8.9389 6.60565C8.97797 6.56658 8.99992 6.51359 8.99992 6.45833V2.08333C8.99992 1.97283 9.04382 1.86685 9.12196 1.78871C9.2001 1.71057 9.30608 1.66667 9.41659 1.66667H17.9583C18.0135 1.66667 18.0665 1.68862 18.1056 1.72769C18.1446 1.76676 18.1666 1.81975 18.1666 1.875V4.16667C18.1666 4.60869 18.3422 5.03262 18.6547 5.34518C18.9673 5.65774 19.3912 5.83333 19.8333 5.83333H22.1249C22.1802 5.83333 22.2332 5.85528 22.2722 5.89435C22.3113 5.93342 22.3333 5.98641 22.3333 6.04167V17.9167C22.3333 18.0272 22.2894 18.1332 22.2112 18.2113C22.1331 18.2894 22.0271 18.3333 21.9166 18.3333H9.20825C9.153 18.3333 9.10001 18.3114 9.06094 18.2723C9.02187 18.2332 8.99992 18.1803 8.99992 18.125V17.7083C8.99992 17.6531 8.97797 17.6001 8.9389 17.561C8.89983 17.5219 8.84684 17.5 8.79159 17.5H7.54159C7.48633 17.5 7.43334 17.5219 7.39427 17.561C7.3552 17.6001 7.33325 17.6531 7.33325 17.7083V18.3333C7.33325 18.7754 7.50885 19.1993 7.82141 19.5118C8.13397 19.8244 8.55789 20 8.99992 20H22.3333C22.7753 20 23.1992 19.8244 23.5118 19.5118C23.8243 19.1993 23.9999 18.7754 23.9999 18.3333V5.34167C23.999 5.12305 23.9122 4.91355 23.7583 4.75833Z" fill="white"/>
</svg>
